<?xml version="1.0" standalone="no"?><!DOCTYPE svg PUBLIC "-//W3C//DTD SVG 1.1//EN" "http://www.w3.org/Graphics/SVG/1.1/DTD/svg11.dtd"><svg t="1696689362890" class="icon" viewBox="0 0 1024 1024" version="1.1" xmlns="http://www.w3.org/2000/svg" p-id="5008" xmlns:xlink="http://www.w3.org/1999/xlink" width="200" height="200"><path d="M990.80712 399.4c-22.2-23.2-52-36.5-85-37.2H689.50712l12-47.5c16.5-66.6 13.7-136.2-8.4-202.2L686.00712 92.7c-16.4-47.4-61-79.6-111.6-80.2H571.00712c-64.5 0.8-117.9 51.9-121.5 118.4v29.3c0.1 3.7 0.1 7.4 0.1 10.9-2 121.2-102.7 218.3-224.1 216H118.80712l-2.7 0.1C50.30712 392-0.69288 447.5 0.00712 513.1v379.6c0 65.5 53.3 118.8 118.8 118.8h669.7c53.5-0.8 100.5-37.4 114.1-88.4l116.7-407.6c2.8-9.8 4.4-20 4.6-30.3 0.8-32.1-11-62.6-33.1-85.8zM74.90712 892.7V512.6c-0.3-26.1 19.6-48.1 45.4-50.6h79.4v474.5h-81c-24.1 0.1-43.8-19.6-43.8-43.8z m872.4-397.8L830.50712 903.1c-5.2 19.4-22.8 33.2-42.4 33.5H274.70712V458.5c139.5-21.7 247.4-140.6 249.9-286.3 0.1-4.9 0-9.8-0.1-13.4l-0.1-25.9c1.4-25.2 22.3-45.2 47.1-45.5h2.5c18.6 0.2 35.1 12.1 41.3 30.2l7 19.5c17.3 51.6 19.5 106.8 6.4 159.9l-4.2 17.5L612.00712 362l-0.1 0.1V437h292.9c12.1 0.3 23.4 5.3 31.7 14 8.3 8.8 12.8 20.2 12.5 32.3 0 4-0.6 7.9-1.7 11.6z" fill="#27D0D8" p-id="5009"></path></svg>